<svg id="Layer_2" data-name="Layer 2" xmlns="http://www.w3.org/2000/svg" xmlns:xlink="http://www.w3.org/1999/xlink" viewBox="0 0 327.92 682"><defs><style>.cls-1{fill:url(#linear-gradient);}</style><linearGradient id="linear-gradient" x1="-29.06" y1="403.02" x2="273.58" y2="323.34" gradientUnits="userSpaceOnUse"><stop offset="0" stop-color="#64497c"/><stop offset="1" stop-color="#91ede8"/></linearGradient></defs><title>Artboard 1</title><path class="cls-1" d="M155.46,635.4a219.87,219.87,0,0,1,1,22.85A236.65,236.65,0,0,1,155.15,682H95.32a215.47,215.47,0,0,0-.13-43.09,222,222,0,0,0-4-24.6l-1.61-6.22L88.74,605l-1-3.09c-.69-2-1.36-4.11-2.08-6.16l-2.55-6c-.8-2-1.82-4-2.81-5.92s-1.92-3.95-3.07-5.78l-3.31-5.61L70.36,567c-4.83-7-10-13.5-15.06-19.68-10.07-12.37-19.63-24-27.91-36.54-2-3.18-4.07-6.31-6-9.51l-2.88-4.83c-.94-1.63-2-3.2-2.83-4.87l-2.7-5c-.89-1.65-1.83-3.29-2.62-5l-2.49-5-1.25-2.51-.4-.9a164.09,164.09,0,0,1,32.23-60.46A290.68,290.68,0,0,0,54.8,455.63l1.35,2.83,1.45,2.77,2.91,5.54c.94,1.87,2,3.65,3,5.46l3.11,5.4c1,1.82,2.18,3.54,3.26,5.31l3.32,5.29c1.07,1.78,2.32,3.45,3.49,5.17l3.57,5.12c2.47,3.34,4.95,6.68,7.49,10s5.14,6.5,7.82,9.58l4,4.68,4,4.53,8,8.85c5.31,5.8,10.25,11.47,14.8,17.21l3.33,4.32,3,4.42c1.07,1.45,1.88,3,2.81,4.52a50.29,50.29,0,0,1,2.61,4.63l2.42,4.75,2.12,4.94,1.06,2.47.9,2.57,1.81,5.15c2.21,7.16,4.06,14.47,5.62,21.85A219,219,0,0,1,155.46,635.4Zm73.67-43.46c-1.56-7.38-3.41-14.69-5.62-21.85l-1.81-5.15-.9-2.57-1.06-2.47L217.62,555l-2.42-4.75a50.29,50.29,0,0,0-2.61-4.63c-.93-1.51-1.74-3.07-2.81-4.52l-3-4.42-3.33-4.32c-4.55-5.74-9.49-11.41-14.8-17.21l-8-8.85-4-4.53-4-4.68c-2.68-3.08-5.22-6.37-7.82-9.58s-5-6.61-7.49-10l-3.57-5.12c-1.17-1.72-2.42-3.39-3.49-5.17l-3.32-5.29c-1.08-1.77-2.25-3.49-3.26-5.31l-3.11-5.4c-1-1.81-2.09-3.59-3-5.46l-2.91-5.54-1.45-2.77-1.35-2.83a294.55,294.55,0,0,1-17.55-46.79c-4.44-15.94-7.7-31.94-10.47-47.82l-1-6-.91-5.95c-.27-1.75-.54-3.49-.8-5.24a198,198,0,0,1-37.64,63.66q1.7,7,3.65,13.91a272.8,272.8,0,0,0,15.36,42.15l1.14,2.55,1.25,2.51,2.49,5c.79,1.69,1.73,3.33,2.62,5l2.7,5c.86,1.67,1.89,3.24,2.83,4.87l2.88,4.83c2,3.2,4,6.33,6,9.51,8.28,12.56,17.84,24.17,27.91,36.54,5,6.18,10.23,12.67,15.06,19.68l3.55,5.36,3.31,5.61c1.15,1.83,2.06,3.85,3.07,5.78s2,3.88,2.81,5.92l2.55,6c.72,2,1.39,4.11,2.08,6.16l1,3.09.81,3.11,1.61,6.22a222,222,0,0,1,4,24.6,216.18,216.18,0,0,1-.57,49.38A221.91,221.91,0,0,1,167.44,682H229a243.15,243.15,0,0,0,4.5-44.75,219.87,219.87,0,0,0-1-22.85A219,219,0,0,0,229.13,591.94Zm-154,50c-1.56-7.38-3.41-14.69-5.62-21.85l-1.81-5.15-.9-2.57-1.06-2.47L63.62,605l-2.42-4.75a50.29,50.29,0,0,0-2.61-4.63c-.93-1.51-1.74-3.07-2.81-4.52l-3-4.42-3.33-4.32c-4.55-5.74-9.49-11.41-14.8-17.21l-8-8.85-4-4.53-4-4.68c-2.68-3.08-5.22-6.37-7.82-9.58s-5-6.61-7.49-10L0,522.8A163.52,163.52,0,0,0,50.76,636.69a51.9,51.9,0,0,1,16.16,37.55h0A7.77,7.77,0,0,0,74.68,682h4.78c-.1-5.89-.42-11.77-1-17.6A219,219,0,0,0,75.13,641.94Zm223-87c-1.56-7.38-3.41-14.69-5.62-21.85l-1.81-5.15-.9-2.57-1.06-2.47L286.62,518l-2.42-4.75a50.29,50.29,0,0,0-2.61-4.63c-.93-1.51-1.74-3.07-2.81-4.52l-3-4.42-3.33-4.32c-4.55-5.74-9.49-11.41-14.8-17.21l-8-8.85-4-4.53-4-4.68c-2.68-3.08-5.22-6.37-7.82-9.58s-5-6.61-7.49-10l-3.57-5.12c-1.17-1.72-2.42-3.39-3.49-5.17l-3.32-5.29c-1.08-1.77-2.25-3.49-3.26-5.31l-3.11-5.4c-1-1.81-2.09-3.59-3-5.46l-2.91-5.54-1.45-2.77-1.35-2.83a294.55,294.55,0,0,1-17.55-46.79c-4.44-15.94-7.7-31.94-10.47-47.82l-1-6-.91-5.95c-.6-4-1.23-7.94-1.77-11.89-1.13-7.91-2.25-15.8-3.2-23.7L163,231.88c-.46-3.94-1-7.86-1.38-11.8l-1.27-11.94-1.16-11.95-1-12c-.92-6.08-2.14-14.75-3.29-25.23-1.43-13.05-2.07-22.81-3-37-.59-9-1.28-20.93-1.89-35H109.11a6.19,6.19,0,0,0-6.19,6.19v19.62a6.19,6.19,0,0,0,6.19,6.19h4.62a5.44,5.44,0,0,1,5.44,5.6l-4.76,89c.22,1.61.44,3.23.67,4.85L116.74,230l1.76,11.61,7.5,46.68c2.52,15.56,5,31,7.92,46.28s6,30.29,10.16,44.82a272.8,272.8,0,0,0,15.36,42.15l1.14,2.55,1.25,2.51,2.49,5c.79,1.69,1.73,3.33,2.62,5l2.7,5c.86,1.67,1.89,3.24,2.83,4.87l2.88,4.83c2,3.2,4,6.33,6,9.51,8.28,12.56,17.84,24.17,27.91,36.54,5,6.18,10.23,12.67,15.06,19.68l3.55,5.36,3.31,5.61c1.15,1.83,2.06,3.85,3.07,5.78s2,3.88,2.81,5.92l2.55,6c.72,2,1.39,4.11,2.08,6.16l1,3.09.81,3.11,1.61,6.22a222,222,0,0,1,4,24.6,216.18,216.18,0,0,1-.57,49.38A218.34,218.34,0,0,1,238.3,682h14.86a7.73,7.73,0,0,0,7.76-7.71,52,52,0,0,1,16.18-37.62,165,165,0,0,0,25.3-30.79c.05-1.88.09-3.76.1-5.63a224.16,224.16,0,0,0-4.37-45.31ZM276.42,398.67c-38.25-36.07-60-86.27-61.59-138.82L208.67,124.6a5.44,5.44,0,0,1,5.44-5.6h4.62a6.19,6.19,0,0,0,6.19-6.19V93.19A6.19,6.19,0,0,0,218.73,87h-50s6.23,0,6.23,0c.81,15.79.84,14.24,2,30,2.33,31.43.07,10,4,41.12.95,7.78,2,15.54,3.12,23.3L185.74,193l1.76,11.61,7.5,46.68c2.52,15.56,5,31,7.92,46.28s6,30.29,10.16,44.82a272.8,272.8,0,0,0,15.36,42.15l1.14,2.55,1.25,2.51,2.49,5c.79,1.69,1.73,3.33,2.62,5l2.7,5c.86,1.67,1.89,3.24,2.83,4.87l2.88,4.83c2,3.2,4,6.33,6,9.51,8.28,12.56,17.84,24.17,27.91,36.54,5,6.18,10.23,12.67,15.06,19.68l3.55,5.36,3.31,5.61c1.15,1.83,2.06,3.85,3.07,5.78s2,3.88,2.81,5.92l2.55,6c.72,2,1.39,4.11,2.08,6.16l1,3.09.81,3.11,1.61,6.22a222,222,0,0,1,4,24.6q1,9.32,1.12,18.63a164.17,164.17,0,0,0-42.89-171.87ZM202.92,39a39,39,0,0,0-39-39h0a39,39,0,0,0-39,39V78h78Z"/></svg>